<svg xmlns="http://www.w3.org/2000/svg" viewBox="0 0 1800 600" width="1800" height="600" role="img" aria-labelledby="title desc">
  <title id="title">Two TTAI eyeball agents on Meshtastic ESP32 devices scanning humongous fungus bio marks and searching for Ball</title>
  <desc id="desc">Panoramic six-by-two scene with two eyeball agents perched on ESP32 square devices, linked by Meshtastic signals around a giant fungus with bio mark overlays and a glowing red Ball location beacon.</desc>

  <defs>
    <linearGradient id="bgSky" x1="0" y1="0" x2="0" y2="1">
      <stop offset="0%" stop-color="#10283a"/>
      <stop offset="58%" stop-color="#1f4a46"/>
      <stop offset="100%" stop-color="#264132"/>
    </linearGradient>

    <linearGradient id="groundGrad" x1="0" y1="0" x2="0" y2="1">
      <stop offset="0%" stop-color="#334f34"/>
      <stop offset="100%" stop-color="#1f2f20"/>
    </linearGradient>

    <linearGradient id="boardGrad" x1="0" y1="0" x2="1" y2="1">
      <stop offset="0%" stop-color="#37617d"/>
      <stop offset="100%" stop-color="#1d3345"/>
    </linearGradient>

    <linearGradient id="screenGrad" x1="0" y1="0" x2="1" y2="1">
      <stop offset="0%" stop-color="#0e1720"/>
      <stop offset="100%" stop-color="#122737"/>
    </linearGradient>

    <radialGradient id="irisGrad" cx="50%" cy="45%" r="62%">
      <stop offset="0%" stop-color="#ff9a9c"/>
      <stop offset="100%" stop-color="#a90f24"/>
    </radialGradient>

    <radialGradient id="fungusCap" cx="50%" cy="38%" r="65%">
      <stop offset="0%" stop-color="#f5c5ab"/>
      <stop offset="100%" stop-color="#815947"/>
    </radialGradient>

    <radialGradient id="fungusStem" cx="50%" cy="10%" r="80%">
      <stop offset="0%" stop-color="#f3ebd6"/>
      <stop offset="100%" stop-color="#b5a486"/>
    </radialGradient>

    <g id="branchFanLeft" fill="none">
      <path d="M 0 0 C -24 0 -48 4 -72 12"/>
      <path d="M -40 6 C -58 18 -72 34 -86 54"/>
      <path d="M -40 6 C -46 22 -44 40 -36 60"/>
      <path d="M -62 14 C -80 22 -96 40 -108 62"/>
      <path d="M -62 14 C -70 30 -68 48 -58 70"/>
      <path d="M -84 24 C -98 38 -110 56 -120 78"/>
    </g>

    <g id="branchFanRight" fill="none">
      <path d="M 0 0 C 24 0 48 4 72 12"/>
      <path d="M 40 6 C 58 18 72 34 86 54"/>
      <path d="M 40 6 C 46 22 44 40 36 60"/>
      <path d="M 62 14 C 80 22 96 40 108 62"/>
      <path d="M 62 14 C 70 30 68 48 58 70"/>
      <path d="M 84 24 C 98 38 110 56 120 78"/>
    </g>

    <g id="branchFanDown" fill="none">
      <path d="M 0 0 C -22 0 -38 8 -48 22"/>
      <path d="M 0 0 C 22 0 38 8 48 22"/>
      <path d="M -22 8 C -30 26 -30 42 -24 62"/>
      <path d="M 22 8 C 30 26 30 42 24 62"/>
      <path d="M -40 18 C -52 34 -58 50 -60 70"/>
      <path d="M 40 18 C 52 34 58 50 60 70"/>
    </g>

    <filter id="softGlow" x="-40%" y="-40%" width="180%" height="180%">
      <feGaussianBlur stdDeviation="6" result="blur"/>
      <feMerge>
        <feMergeNode in="blur"/>
        <feMergeNode in="SourceGraphic"/>
      </feMerge>
    </filter>
  </defs>

  <rect x="0" y="0" width="1800" height="600" fill="url(#bgSky)"/>
  <rect x="0" y="360" width="1800" height="240" fill="url(#groundGrad)"/>

  <g opacity="0.26">
    <circle cx="180" cy="115" r="3" fill="#d8fff2"/>
    <circle cx="320" cy="80" r="2" fill="#d8fff2"/>
    <circle cx="540" cy="130" r="3" fill="#d8fff2"/>
    <circle cx="780" cy="90" r="2" fill="#d8fff2"/>
    <circle cx="1040" cy="120" r="3" fill="#d8fff2"/>
    <circle cx="1320" cy="75" r="2" fill="#d8fff2"/>
    <circle cx="1570" cy="110" r="3" fill="#d8fff2"/>
  </g>

  <g id="fungus-center">
    <ellipse cx="900" cy="224" rx="300" ry="116" fill="url(#fungusCap)" stroke="#523729" stroke-width="6"/>
    <path d="M 640 226 C 770 284 1030 286 1160 226" fill="none" stroke="#f3d0bc" stroke-width="6" stroke-linecap="round"/>
    <path d="M 680 246 C 790 282 1010 282 1120 246" fill="none" stroke="#f3d0bc" stroke-width="4" stroke-linecap="round"/>
    <path d="M 768 252 C 835 270 965 270 1032 252" fill="none" stroke="#f3d0bc" stroke-width="3" stroke-linecap="round"/>
    <path d="M 830 255 L 815 370 C 812 408 836 432 900 432 C 964 432 988 408 985 370 L 970 255 Z" fill="url(#fungusStem)" stroke="#7f715b" stroke-width="5"/>
    <ellipse cx="900" cy="220" rx="355" ry="146" fill="none" stroke="#8bfad8" stroke-width="3" stroke-dasharray="14 12" opacity="0.75">
      <animate attributeName="stroke-dashoffset" values="0;-52" dur="6s" repeatCount="indefinite"/>
    </ellipse>
    <ellipse cx="900" cy="222" rx="248" ry="94" fill="none" stroke="#8bfad8" stroke-width="2" stroke-dasharray="10 8" opacity="0.6">
      <animate attributeName="stroke-dashoffset" values="0;42" dur="5s" repeatCount="indefinite"/>
    </ellipse>
  </g>

  <g id="mycelium" fill="none" stroke-linecap="round">
    <g id="mycelium-trunks" stroke="#8e5d3c" opacity="0.9">
      <path d="M 900 430 C 790 460 720 500 610 534" stroke-width="5"/>
      <path d="M 900 430 C 980 462 1060 496 1178 530" stroke-width="5"/>
      <path d="M 900 432 C 855 474 790 507 702 548" stroke-width="4"/>
      <path d="M 900 432 C 962 472 1032 506 1122 548" stroke-width="4"/>
      <path d="M 900 432 C 896 492 887 540 874 578" stroke-width="3"/>
      <path d="M 900 432 C 880 500 854 548 820 596" stroke-width="2.4"/>
      <path d="M 900 432 C 920 500 946 548 980 596" stroke-width="2.4"/>
    </g>

    <g id="mycelium-cross-links" stroke="#73472e" stroke-width="2.2" opacity="0.38">
      <path d="M 34 378 C 284 408 548 430 900 434 C 1256 438 1538 412 1768 382"/>
      <path d="M 22 416 C 250 448 522 478 898 486 C 1278 494 1550 458 1780 426"/>
      <path d="M 18 458 C 274 490 540 518 896 526 C 1272 534 1526 508 1776 468"/>
      <path d="M 42 514 C 302 540 566 562 890 568 C 1216 574 1480 552 1742 520"/>
    </g>

    <g id="mycelium-web-top" stroke="#d9aa7b" stroke-width="1.6" opacity="0.54">
      <use href="#branchFanLeft" transform="translate(868 366)"/>
      <use href="#branchFanLeft" transform="translate(764 368)"/>
      <use href="#branchFanLeft" transform="translate(656 370)"/>
      <use href="#branchFanLeft" transform="translate(548 372)"/>
      <use href="#branchFanLeft" transform="translate(438 372)"/>
      <use href="#branchFanLeft" transform="translate(330 370)"/>
      <use href="#branchFanLeft" transform="translate(220 368)"/>
      <use href="#branchFanLeft" transform="translate(124 366)"/>
      <use href="#branchFanLeft" transform="translate(72 366)"/>
      <use href="#branchFanRight" transform="translate(932 366)"/>
      <use href="#branchFanRight" transform="translate(1036 368)"/>
      <use href="#branchFanRight" transform="translate(1144 370)"/>
      <use href="#branchFanRight" transform="translate(1252 372)"/>
      <use href="#branchFanRight" transform="translate(1362 372)"/>
      <use href="#branchFanRight" transform="translate(1470 370)"/>
      <use href="#branchFanRight" transform="translate(1578 368)"/>
      <use href="#branchFanRight" transform="translate(1674 366)"/>
      <use href="#branchFanRight" transform="translate(1728 366)"/>
      <use href="#branchFanDown" transform="translate(900 362)"/>
      <use href="#branchFanDown" transform="translate(724 368)"/>
      <use href="#branchFanDown" transform="translate(540 372)"/>
      <use href="#branchFanDown" transform="translate(356 370)"/>
      <use href="#branchFanDown" transform="translate(170 366)"/>
      <use href="#branchFanDown" transform="translate(1080 368)"/>
      <use href="#branchFanDown" transform="translate(1262 372)"/>
      <use href="#branchFanDown" transform="translate(1446 370)"/>
      <use href="#branchFanDown" transform="translate(1630 366)"/>
    </g>

    <g id="mycelium-web-mid" stroke="#c98a58" stroke-width="1.95" opacity="0.58">
      <use href="#branchFanLeft" transform="translate(882 402)"/>
      <use href="#branchFanLeft" transform="translate(808 410)"/>
      <use href="#branchFanLeft" transform="translate(730 418)"/>
      <use href="#branchFanLeft" transform="translate(650 426)"/>
      <use href="#branchFanLeft" transform="translate(568 434)"/>
      <use href="#branchFanLeft" transform="translate(484 440)"/>
      <use href="#branchFanLeft" transform="translate(400 444)"/>
      <use href="#branchFanLeft" transform="translate(314 446)"/>
      <use href="#branchFanLeft" transform="translate(228 446)"/>
      <use href="#branchFanLeft" transform="translate(142 444)"/>
      <use href="#branchFanLeft" transform="translate(74 438)"/>
      <use href="#branchFanRight" transform="translate(918 402)"/>
      <use href="#branchFanRight" transform="translate(992 410)"/>
      <use href="#branchFanRight" transform="translate(1070 418)"/>
      <use href="#branchFanRight" transform="translate(1150 426)"/>
      <use href="#branchFanRight" transform="translate(1232 434)"/>
      <use href="#branchFanRight" transform="translate(1316 440)"/>
      <use href="#branchFanRight" transform="translate(1400 444)"/>
      <use href="#branchFanRight" transform="translate(1486 446)"/>
      <use href="#branchFanRight" transform="translate(1572 446)"/>
      <use href="#branchFanRight" transform="translate(1658 444)"/>
      <use href="#branchFanRight" transform="translate(1726 438)"/>
      <use href="#branchFanDown" transform="translate(900 394)"/>
      <use href="#branchFanDown" transform="translate(804 410)"/>
      <use href="#branchFanDown" transform="translate(706 424)"/>
      <use href="#branchFanDown" transform="translate(606 436)"/>
      <use href="#branchFanDown" transform="translate(504 444)"/>
      <use href="#branchFanDown" transform="translate(396 448)"/>
      <use href="#branchFanDown" transform="translate(286 448)"/>
      <use href="#branchFanDown" transform="translate(176 444)"/>
      <use href="#branchFanDown" transform="translate(994 410)"/>
      <use href="#branchFanDown" transform="translate(1092 424)"/>
      <use href="#branchFanDown" transform="translate(1192 436)"/>
      <use href="#branchFanDown" transform="translate(1294 444)"/>
      <use href="#branchFanDown" transform="translate(1402 448)"/>
      <use href="#branchFanDown" transform="translate(1512 448)"/>
      <use href="#branchFanDown" transform="translate(1622 444)"/>
    </g>

    <g id="mycelium-web-deep" stroke="#a8673f" stroke-width="2.25" opacity="0.62">
      <use href="#branchFanLeft" transform="translate(868 446)"/>
      <use href="#branchFanLeft" transform="translate(824 462)"/>
      <use href="#branchFanLeft" transform="translate(778 480)"/>
      <use href="#branchFanLeft" transform="translate(730 500)"/>
      <use href="#branchFanLeft" transform="translate(682 520)"/>
      <use href="#branchFanLeft" transform="translate(634 540)"/>
      <use href="#branchFanLeft" transform="translate(586 558)"/>
      <use href="#branchFanLeft" transform="translate(538 572)"/>
      <use href="#branchFanLeft" transform="translate(490 582)"/>
      <use href="#branchFanLeft" transform="translate(438 586)"/>
      <use href="#branchFanLeft" transform="translate(386 586)"/>
      <use href="#branchFanLeft" transform="translate(332 582)"/>
      <use href="#branchFanLeft" transform="translate(278 574)"/>
      <use href="#branchFanLeft" transform="translate(224 562)"/>
      <use href="#branchFanLeft" transform="translate(170 548)"/>
      <use href="#branchFanLeft" transform="translate(116 532)"/>
      <use href="#branchFanLeft" transform="translate(72 514)"/>
      <use href="#branchFanRight" transform="translate(932 446)"/>
      <use href="#branchFanRight" transform="translate(976 462)"/>
      <use href="#branchFanRight" transform="translate(1022 480)"/>
      <use href="#branchFanRight" transform="translate(1070 500)"/>
      <use href="#branchFanRight" transform="translate(1118 520)"/>
      <use href="#branchFanRight" transform="translate(1166 540)"/>
      <use href="#branchFanRight" transform="translate(1214 558)"/>
      <use href="#branchFanRight" transform="translate(1262 572)"/>
      <use href="#branchFanRight" transform="translate(1310 582)"/>
      <use href="#branchFanRight" transform="translate(1362 586)"/>
      <use href="#branchFanRight" transform="translate(1414 586)"/>
      <use href="#branchFanRight" transform="translate(1468 582)"/>
      <use href="#branchFanRight" transform="translate(1522 574)"/>
      <use href="#branchFanRight" transform="translate(1576 562)"/>
      <use href="#branchFanRight" transform="translate(1630 548)"/>
      <use href="#branchFanRight" transform="translate(1684 532)"/>
      <use href="#branchFanRight" transform="translate(1728 514)"/>
      <use href="#branchFanDown" transform="translate(900 442)"/>
      <use href="#branchFanDown" transform="translate(892 472)"/>
      <use href="#branchFanDown" transform="translate(884 502)"/>
      <use href="#branchFanDown" transform="translate(876 530)"/>
      <use href="#branchFanDown" transform="translate(868 556)"/>
      <use href="#branchFanDown" transform="translate(860 578)"/>
      <use href="#branchFanDown" transform="translate(940 472)"/>
      <use href="#branchFanDown" transform="translate(948 502)"/>
      <use href="#branchFanDown" transform="translate(956 530)"/>
      <use href="#branchFanDown" transform="translate(964 556)"/>
      <use href="#branchFanDown" transform="translate(972 578)"/>
    </g>

    <g id="mycelium-capillary" stroke="#efbf93" stroke-width="1.15" opacity="0.34">
      <use href="#branchFanLeft" transform="translate(906 380)"/>
      <use href="#branchFanLeft" transform="translate(700 384)"/>
      <use href="#branchFanLeft" transform="translate(494 388)"/>
      <use href="#branchFanLeft" transform="translate(288 390)"/>
      <use href="#branchFanLeft" transform="translate(92 390)"/>
      <use href="#branchFanRight" transform="translate(894 380)"/>
      <use href="#branchFanRight" transform="translate(1100 384)"/>
      <use href="#branchFanRight" transform="translate(1306 388)"/>
      <use href="#branchFanRight" transform="translate(1512 390)"/>
      <use href="#branchFanRight" transform="translate(1708 390)"/>
      <use href="#branchFanDown" transform="translate(808 384)"/>
      <use href="#branchFanDown" transform="translate(620 390)"/>
      <use href="#branchFanDown" transform="translate(430 392)"/>
      <use href="#branchFanDown" transform="translate(238 392)"/>
      <use href="#branchFanDown" transform="translate(1048 384)"/>
      <use href="#branchFanDown" transform="translate(1240 390)"/>
      <use href="#branchFanDown" transform="translate(1430 392)"/>
      <use href="#branchFanDown" transform="translate(1622 392)"/>
    </g>
  </g>

  <g id="mesh-link" fill="none" stroke="#6af0d2" stroke-width="5" stroke-linecap="round" stroke-dasharray="18 12">
    <path d="M 410 194 C 560 126 714 106 900 166 C 1092 224 1230 204 1390 194">
      <animate attributeName="stroke-dashoffset" values="0;-60" dur="2.4s" repeatCount="indefinite"/>
    </path>
  </g>
  <g fill="#6af0d2" filter="url(#softGlow)">
    <circle cx="410" cy="194" r="8"/>
    <circle cx="900" cy="166" r="8"/>
    <circle cx="1390" cy="194" r="8"/>
  </g>

  <g id="left-node" transform="translate(210 250)">
    <rect x="0" y="0" width="360" height="270" rx="24" fill="url(#boardGrad)" stroke="#8fb9cf" stroke-width="4"/>
    <rect x="36" y="42" width="288" height="138" rx="14" fill="url(#screenGrad)" stroke="#6da6c2" stroke-width="3"/>
    <circle cx="36" cy="20" r="8" fill="#9ad0e7"/>
    <circle cx="324" cy="20" r="8" fill="#9ad0e7"/>
    <line x1="36" y1="-30" x2="36" y2="0" stroke="#9ad0e7" stroke-width="5" stroke-linecap="round"/>
    <line x1="324" y1="-30" x2="324" y2="0" stroke="#9ad0e7" stroke-width="5" stroke-linecap="round"/>
    <text x="180" y="92" font-size="24" fill="#9df6dc" text-anchor="middle" font-family="monospace">TTAI-AGENT-A</text>
    <text x="180" y="124" font-size="20" fill="#90d7ff" text-anchor="middle" font-family="monospace">MESHTASTIC LINK</text>
    <text x="180" y="218" font-size="26" fill="#d5ecf8" text-anchor="middle" font-family="monospace">ESP32</text>
    <g transform="translate(180 -48)">
      <ellipse cx="0" cy="0" rx="82" ry="66" fill="#f6f8fb" stroke="#1e2830" stroke-width="6"/>
      <ellipse cx="0" cy="0" rx="34" ry="34" fill="url(#irisGrad)" stroke="#5c0f1c" stroke-width="4"/>
      <circle cx="0" cy="0" r="15" fill="#0b1218"/>
      <circle cx="-16" cy="-13" r="7" fill="#ffffff" fill-opacity="0.78"/>
      <animateTransform attributeName="transform" type="translate" values="180 -48;180 -52;180 -48" dur="2.6s" repeatCount="indefinite"/>
    </g>
  </g>

  <g id="right-node" transform="translate(1230 250)">
    <rect x="0" y="0" width="360" height="270" rx="24" fill="url(#boardGrad)" stroke="#8fb9cf" stroke-width="4"/>
    <rect x="36" y="42" width="288" height="138" rx="14" fill="url(#screenGrad)" stroke="#6da6c2" stroke-width="3"/>
    <circle cx="36" cy="20" r="8" fill="#9ad0e7"/>
    <circle cx="324" cy="20" r="8" fill="#9ad0e7"/>
    <line x1="36" y1="-30" x2="36" y2="0" stroke="#9ad0e7" stroke-width="5" stroke-linecap="round"/>
    <line x1="324" y1="-30" x2="324" y2="0" stroke="#9ad0e7" stroke-width="5" stroke-linecap="round"/>
    <text x="180" y="92" font-size="24" fill="#9df6dc" text-anchor="middle" font-family="monospace">TTAI-AGENT-B</text>
    <text x="180" y="124" font-size="20" fill="#90d7ff" text-anchor="middle" font-family="monospace">BALL QUERY MODE</text>
    <text x="180" y="218" font-size="26" fill="#d5ecf8" text-anchor="middle" font-family="monospace">ESP32</text>
    <g transform="translate(180 -48)">
      <ellipse cx="0" cy="0" rx="82" ry="66" fill="#f6f8fb" stroke="#1e2830" stroke-width="6"/>
      <ellipse cx="0" cy="0" rx="34" ry="34" fill="url(#irisGrad)" stroke="#5c0f1c" stroke-width="4"/>
      <circle cx="0" cy="0" r="15" fill="#0b1218"/>
      <circle cx="-16" cy="-13" r="7" fill="#ffffff" fill-opacity="0.78"/>
      <animateTransform attributeName="transform" type="translate" values="180 -48;180 -44;180 -48" dur="2.2s" repeatCount="indefinite"/>
    </g>
  </g>

  <g id="bio-marks-labels" font-family="monospace">
    <rect x="650" y="42" width="504" height="92" rx="14" fill="#111922" fill-opacity="0.78" stroke="#66d9bd" stroke-width="2"/>
    <text x="902" y="78" text-anchor="middle" fill="#9df6dc" font-size="26">HUMONGOUS FUNGUS: BIO MARKS</text>
    <text x="902" y="110" text-anchor="middle" fill="#c2f8ee" font-size="18">spore pulse | cap ring shift | mycelium branch map</text>
  </g>

  <g id="left-bubble" font-family="monospace">
    <animateTransform attributeName="transform" type="translate" values="0 0;0 -4;0 0" dur="4.2s" repeatCount="indefinite"/>
    <path d="M 56 34 L 474 34 Q 500 34 500 60 L 500 138 Q 500 164 474 164 L 244 164 L 296 186 L 204 164 L 56 164 Q 30 164 30 138 L 30 60 Q 30 34 56 34 Z" fill="#122029" stroke="#89d8c4" stroke-width="3"/>
    <text x="266" y="87" text-anchor="middle" fill="#b6fce9" font-size="21" opacity="1">BIO MARKS CONFIRMED.
      <animate attributeName="opacity" values="1;1;0;0;0;1" keyTimes="0;0.32;0.33;0.66;0.99;1" dur="9s" repeatCount="indefinite"/>
    </text>
    <text x="266" y="118" text-anchor="middle" fill="#8ddcc5" font-size="17" opacity="1">FUNGUS STATUS: ENORMOUS.
      <animate attributeName="opacity" values="1;1;0;0;0;1" keyTimes="0;0.32;0.33;0.66;0.99;1" dur="9s" repeatCount="indefinite"/>
    </text>
    <text x="266" y="87" text-anchor="middle" fill="#b6fce9" font-size="21" opacity="0">DOES BALL PAY RENT HERE?
      <animate attributeName="opacity" values="0;0;1;1;0;0" keyTimes="0;0.32;0.33;0.66;0.67;1" dur="9s" repeatCount="indefinite"/>
    </text>
    <text x="266" y="118" text-anchor="middle" fill="#8ddcc5" font-size="17" opacity="0">MYCELIUM SAYS MAYBE.
      <animate attributeName="opacity" values="0;0;1;1;0;0" keyTimes="0;0.32;0.33;0.66;0.67;1" dur="9s" repeatCount="indefinite"/>
    </text>
    <text x="266" y="87" text-anchor="middle" fill="#b6fce9" font-size="21" opacity="0">HOLDING LAUGH.EXE
      <animate attributeName="opacity" values="0;0;0;0;1;1" keyTimes="0;0.66;0.67;0.68;0.99;1" dur="9s" repeatCount="indefinite"/>
    </text>
    <text x="266" y="118" text-anchor="middle" fill="#8ddcc5" font-size="17" opacity="0">SCAN CONTINUES...
      <animate attributeName="opacity" values="0;0;0;0;1;1" keyTimes="0;0.66;0.67;0.68;0.99;1" dur="9s" repeatCount="indefinite"/>
    </text>
  </g>

  <g id="right-bubble" font-family="monospace">
    <animateTransform attributeName="transform" type="translate" values="0 0;0 -5;0 0" dur="3.8s" repeatCount="indefinite"/>
    <path d="M 1306 34 L 1744 34 Q 1770 34 1770 60 L 1770 138 Q 1770 164 1744 164 L 1668 164 L 1524 186 L 1616 164 L 1306 164 Q 1280 164 1280 138 L 1280 60 Q 1280 34 1306 34 Z" fill="#122029" stroke="#89d8c4" stroke-width="3"/>
    <text x="1525" y="87" text-anchor="middle" fill="#b6fce9" font-size="21" opacity="1">WHERE IS BALL?
      <animate attributeName="opacity" values="1;1;0;0;0;1" keyTimes="0;0.32;0.33;0.66;0.99;1" dur="9s" repeatCount="indefinite"/>
    </text>
    <text x="1525" y="118" text-anchor="middle" fill="#8ddcc5" font-size="17" opacity="1">REQUESTING MESH FIX...
      <animate attributeName="opacity" values="1;1;0;0;0;1" keyTimes="0;0.32;0.33;0.66;0.99;1" dur="9s" repeatCount="indefinite"/>
    </text>
    <text x="1525" y="87" text-anchor="middle" fill="#b6fce9" font-size="21" opacity="0">PING RETURN: ROOT ZONE.
      <animate attributeName="opacity" values="0;0;1;1;0;0" keyTimes="0;0.32;0.33;0.66;0.67;1" dur="9s" repeatCount="indefinite"/>
    </text>
    <text x="1525" y="118" text-anchor="middle" fill="#8ddcc5" font-size="17" opacity="0">ALSO: 12 CONFUSED SPORES.
      <animate attributeName="opacity" values="0;0;1;1;0;0" keyTimes="0;0.32;0.33;0.66;0.67;1" dur="9s" repeatCount="indefinite"/>
    </text>
    <text x="1525" y="87" text-anchor="middle" fill="#b6fce9" font-size="21" opacity="0">BALL ACQUIRED. DIGNITY?
      <animate attributeName="opacity" values="0;0;0;0;1;1" keyTimes="0;0.66;0.67;0.68;0.99;1" dur="9s" repeatCount="indefinite"/>
    </text>
    <text x="1525" y="118" text-anchor="middle" fill="#8ddcc5" font-size="17" opacity="0">DIGNITY NOT FOUND.
      <animate attributeName="opacity" values="0;0;0;0;1;1" keyTimes="0;0.66;0.67;0.68;0.99;1" dur="9s" repeatCount="indefinite"/>
    </text>
  </g>

  <g id="ball-locator-foreground" transform="translate(1088 496)">
    <path d="M -14 -8 C -96 -30 -154 -48 -188 -64" fill="none" stroke="#ffd4cf" stroke-width="4" stroke-linecap="round" stroke-dasharray="9 9">
      <animate attributeName="stroke-dashoffset" values="0;-36" dur="1.8s" repeatCount="indefinite"/>
    </path>
    <circle cx="0" cy="0" r="36" fill="#ff5b5d" stroke="#fff2ef" stroke-width="5"/>
    <circle cx="0" cy="0" r="13" fill="#811018"/>
    <circle cx="0" cy="0" r="42" fill="none" stroke="#ff9e9f" stroke-width="5" opacity="0.86">
      <animate attributeName="r" values="42;66;42" dur="2.2s" repeatCount="indefinite"/>
      <animate attributeName="opacity" values="0.9;0.22;0.9" dur="2.2s" repeatCount="indefinite"/>
    </circle>
    <rect x="54" y="-48" width="364" height="104" rx="16" fill="#0f1319" fill-opacity="0.82" stroke="#ffd5d0" stroke-width="3"/>
    <text x="236" y="-12" font-family="monospace" font-size="28" text-anchor="middle" fill="#ffe9e3">BALL LOCATOR LOCK</text>
    <text x="236" y="20" font-family="monospace" font-size="18" text-anchor="middle" fill="#ffd3cb">foreground fix: near fungus roots</text>
  </g>
</svg>
